<?xml version="1.0" standalone="no"?>
<!DOCTYPE svg PUBLIC "-//W3C//DTD SVG 20010904//EN"
 "http://www.w3.org/TR/2001/REC-SVG-20010904/DTD/svg10.dtd">
<svg version="1.0" xmlns="http://www.w3.org/2000/svg"
 width="3600.000000pt" height="3600.000000pt" viewBox="0 0 3600.000000 3600.000000"
 preserveAspectRatio="xMidYMid meet">
<metadata>
Created by potrace 1.11, written by Peter Selinger 2001-2013
</metadata>
<g transform="translate(0.000000,3600.000000) scale(0.100000,-0.100000)"
fill="#000000" stroke="none">
<path d="M15920 35398 c-619 -339 -1200 -753 -1730 -1234 -195 -176 -506 -496
-664 -682 -72 -83 -131 -150 -133 -148 -2 2 33 94 77 206 44 111 79 204 78
206 -5 4 -360 -142 -513 -211 -334 -150 -786 -394 -1098 -591 -661 -419 -1187
-910 -1469 -1370 -28 -46 -53 -82 -55 -80 -6 6 63 186 112 292 57 122 144 269
202 342 25 31 51 63 57 71 6 8 -9 2 -34 -14 -190 -119 -399 -340 -547 -578
-287 -465 -458 -1109 -480 -1810 -4 -135 -10 -196 -17 -194 -20 7 -106 141
-161 252 -55 112 -105 262 -105 318 0 72 -20 3 -37 -128 -13 -106 -18 -208
-18 -420 0 -249 3 -294 24 -410 35 -200 99 -377 175 -488 14 -21 26 -41 26
-45 0 -4 -162 -65 -359 -137 -198 -71 -358 -131 -357 -133 2 -1 36 5 77 14
115 25 349 30 440 10 73 -16 149 -51 156 -71 2 -5 -21 -23 -50 -39 -222 -125
-658 -466 -737 -576 l-21 -29 38 13 c21 8 74 28 117 45 44 17 81 29 84 27 2
-2 -5 -21 -16 -43 -33 -64 -196 -449 -283 -665 -299 -747 -503 -1417 -558
-1833 -16 -121 -78 -748 -101 -1025 -118 -1424 -100 -2482 57 -3327 15 -79 30
-143 34 -143 4 0 47 48 95 106 49 58 90 101 92 95 3 -8 -110 -527 -124 -571
-5 -13 -4 -13 9 0 11 12 164 196 174 209 2 2 5 2 7 0 2 -2 11 -220 21 -484 9
-264 19 -491 21 -504 5 -23 10 -20 77 47 40 40 76 72 80 72 4 0 7 -22 7 -48 0
-64 35 -503 66 -832 43 -464 97 -867 147 -1101 l23 -106 -85 90 c-137 143
-269 225 -435 267 -96 24 -271 27 -362 5 -556 -131 -671 -894 -283 -1881 78
-199 195 -435 364 -734 177 -313 213 -391 231 -494 26 -152 88 -312 359 -941
408 -946 447 -1069 560 -1760 106 -641 154 -802 279 -930 l49 -50 -11 -95 c-5
-52 -9 -96 -8 -97 1 -1 26 19 56 44 l55 46 7 -54 c42 -339 116 -1170 125
-1401 3 -98 9 -178 13 -178 4 0 33 20 66 44 32 25 62 42 65 38 3 -4 25 -92 48
-197 167 -745 375 -1537 511 -1945 95 -283 118 -333 310 -664 335 -580 517
-948 551 -1112 l12 -61 63 44 c34 25 66 44 71 43 4 -1 91 -152 193 -334 l185
-331 92 -3 92 -3 116 -121 c311 -325 554 -680 599 -877 8 -34 16 -65 19 -67 2
-2 20 56 41 129 21 72 42 139 47 147 4 8 5 -34 2 -95 -11 -206 25 -440 87
-569 49 -105 56 -102 57 22 1 78 6 118 18 147 l17 40 13 -30 c8 -16 39 -103
71 -193 32 -89 61 -159 64 -155 4 5 15 93 25 196 10 103 22 184 26 180 4 -4
32 -98 61 -207 62 -227 47 -218 129 -76 l43 75 7 -53 c4 -30 10 -115 14 -190
11 -204 10 -202 80 -99 32 48 61 87 64 87 3 0 40 -87 81 -193 40 -106 83 -212
93 -237 l19 -45 23 90 c13 52 25 84 28 75 4 -8 27 -82 52 -164 25 -83 47 -152
49 -154 2 -2 39 15 81 38 42 23 78 40 80 38 3 -2 23 -92 46 -199 23 -107 43
-196 45 -198 2 -2 29 24 60 58 l57 62 102 -208 c109 -220 203 -385 254 -443
l30 -35 1 113 0 114 262 -306 c144 -168 263 -305 264 -303 1 1 -6 51 -17 111
-11 60 -18 110 -16 113 2 2 22 -20 44 -50 124 -164 332 -330 504 -403 65 -27
149 -55 149 -49 0 2 -27 36 -60 76 -32 40 -58 74 -57 75 1 1 99 -46 217 -105
340 -169 603 -268 693 -259 32 3 31 4 -60 78 -50 41 -90 76 -89 78 2 1 90 -32
197 -74 106 -41 267 -100 357 -131 180 -60 176 -60 327 -24 140 33 277 37 415
13 128 -24 319 -47 325 -40 3 3 -12 24 -33 48 -20 24 -30 41 -22 38 115 -47
405 -157 407 -154 1 1 -11 21 -28 45 -17 23 -30 44 -27 46 2 2 78 -14 168 -35
274 -66 354 -80 533 -95 149 -13 539 -35 544 -31 1 1 -30 43 -68 93 -38 51
-69 94 -69 97 0 3 46 -11 103 -30 119 -40 292 -91 326 -96 20 -3 26 4 43 47
11 28 23 53 27 58 4 4 55 -12 113 -36 l105 -44 43 74 c57 96 130 176 183 201
28 14 118 32 271 54 126 18 234 38 241 44 7 7 20 60 30 118 10 57 21 110 26
117 6 10 29 3 96 -25 48 -21 94 -40 101 -43 9 -4 12 37 12 188 l0 193 69 -68
69 -68 15 23 c8 13 69 123 137 244 67 121 126 224 131 229 5 6 9 -53 10 -150
l0 -159 25 55 c36 79 98 262 119 352 10 42 22 75 25 73 4 -2 29 -54 55 -115
27 -60 51 -110 55 -110 3 0 14 95 24 211 10 117 20 235 23 264 l6 53 128 13
c87 8 129 16 129 24 0 7 -13 45 -30 85 -16 40 -30 74 -30 75 0 1 20 8 45 15
67 19 112 6 161 -45 l42 -43 65 86 c117 157 197 293 227 386 7 21 15 90 19
154 l6 116 51 -66 51 -66 129 220 c71 121 135 223 142 225 7 3 44 -7 83 -21
40 -15 74 -24 77 -22 2 3 17 109 33 237 15 127 30 233 32 236 2 2 23 -27 47
-64 l42 -67 19 24 c30 40 85 150 112 225 22 64 33 114 55 260 l8 50 59 -78
c40 -53 61 -74 66 -65 4 7 40 126 80 265 40 138 76 250 80 247 4 -2 15 -33 24
-69 10 -36 21 -62 25 -58 4 4 29 63 55 130 27 67 52 120 56 117 5 -3 32 -38
61 -79 28 -41 52 -74 54 -72 1 1 48 110 104 242 62 145 139 306 195 405 233
412 319 632 332 848 3 51 9 89 13 85 4 -4 24 -52 46 -106 27 -71 40 -93 45
-80 3 10 66 185 139 388 73 204 183 506 246 672 78 209 126 353 153 465 59
241 120 593 121 696 0 83 29 45 76 -100 15 -48 29 -86 30 -85 1 1 14 121 30
267 15 146 29 267 31 269 2 3 34 -26 72 -63 64 -64 69 -66 74 -44 4 12 7 52 7
87 0 225 43 549 99 757 86 320 115 500 104 669 -6 116 9 242 63 495 34 160
168 703 184 746 7 17 20 22 71 28 34 3 63 7 65 9 1 1 -3 65 -8 142 -5 77 -8
246 -5 375 4 195 9 259 31 375 14 77 26 145 25 150 0 6 -59 -219 -130 -500
-259 -1020 -393 -1525 -554 -2085 -111 -383 -166 -596 -191 -738 -9 -56 -21
-99 -24 -95 -4 5 -27 55 -51 112 l-44 105 -28 -280 c-16 -153 -30 -280 -31
-282 -4 -3 -170 167 -216 221 -18 20 -36 37 -41 37 -5 0 -10 -141 -11 -314
l-3 -315 -69 170 c-38 93 -72 172 -76 174 -10 6 -110 -237 -170 -416 -58 -171
-107 -366 -116 -458 -4 -36 -10 -72 -13 -79 -4 -7 -22 97 -40 230 -18 134 -36
258 -40 277 -5 28 -17 -7 -70 -213 -35 -135 -67 -244 -70 -240 -3 3 -22 62
-41 131 l-36 125 -38 -299 c-21 -164 -39 -299 -41 -301 -2 -2 -94 58 -206 132
-112 74 -204 134 -205 133 -1 -1 9 -65 21 -142 44 -266 57 -391 62 -581 5
-160 3 -200 -12 -250 -33 -117 -126 -267 -244 -395 l-48 -53 88 -203 c48 -112
84 -203 81 -203 -4 0 -87 68 -185 151 -98 83 -180 149 -182 147 -3 -2 -32
-123 -65 -268 -34 -146 -63 -267 -66 -269 -8 -9 -77 65 -115 123 -71 108 -108
233 -117 400 l-7 118 -88 -82 c-48 -46 -90 -80 -93 -77 -3 3 0 65 6 138 15
159 7 526 -14 644 -21 119 -45 211 -78 294 -16 40 -27 75 -26 77 2 1 68 -96
147 -217 79 -121 147 -217 151 -212 19 20 43 215 43 348 -1 220 -45 382 -143
525 -28 40 -49 74 -48 75 2 1 64 -15 138 -35 74 -20 137 -35 139 -34 2 2 -34
54 -81 116 -417 549 -870 958 -1198 1082 -219 83 -837 184 -1485 241 -99 9
-181 17 -182 18 -1 1 21 38 47 82 27 44 50 83 50 88 0 4 -99 7 -220 7 -121 0
-220 3 -220 8 0 4 98 64 217 135 169 99 211 127 188 127 -40 0 -428 -46 -594
-70 -132 -19 -135 -20 -320 -109 -137 -66 -190 -97 -203 -117 -9 -15 -33 -76
-53 -137 l-36 -109 82 -129 c45 -72 80 -132 78 -133 -2 -2 -74 45 -159 104
l-155 108 -5 -185 -5 -185 -104 116 c-58 63 -106 115 -107 113 -1 -1 -14 -89
-30 -195 -15 -106 -31 -189 -35 -185 -4 5 -35 71 -69 148 -35 77 -64 141 -65
143 -1 1 -53 -22 -116 -52 -103 -48 -319 -126 -351 -126 -8 0 -72 -59 -143
-130 l-130 -130 -5 155 -5 156 -140 -125 c-115 -104 -142 -123 -154 -113 -27
22 -209 255 -306 392 -213 299 -377 471 -587 612 -189 127 -261 167 -358 199
-74 24 -102 28 -210 28 -133 1 -110 6 -385 -81 -388 -123 -736 -417 -895 -756
-21 -45 -42 -94 -45 -110 -6 -24 -25 -39 -25 -19 0 91 50 306 95 407 13 30 22
55 20 55 -2 0 -55 -28 -117 -63 -204 -114 -348 -173 -518 -212 -131 -30 -444
-163 -706 -299 -49 -25 -89 -44 -90 -43 -1 1 88 96 197 211 110 115 197 211
195 213 -6 7 -274 -44 -391 -73 -347 -87 -640 -212 -890 -378 -89 -59 -154
-113 -249 -208 -71 -71 -127 -130 -124 -133 2 -2 100 34 218 80 118 46 216 83
217 81 2 -2 -12 -33 -32 -69 -128 -233 -165 -513 -96 -735 l17 -57 60 175 59
175 6 -230 c10 -321 34 -529 80 -675 45 -141 48 -135 49 100 l2 215 20 -45
c62 -134 94 -359 68 -471 -18 -77 -67 -165 -114 -205 -83 -71 -545 -328 -561
-313 -2 3 78 98 177 212 99 115 178 210 176 212 -2 2 -35 -3 -73 -11 -151 -32
-276 -46 -415 -47 -218 -2 -291 22 -388 128 -82 89 -202 304 -268 480 l-19 50
-5 -145 -5 -145 -42 100 c-23 55 -76 181 -117 280 l-75 180 -3 -130 -3 -130
-125 414 -125 414 -5 -162 -5 -163 -105 391 c-57 215 -107 387 -111 383 -4 -4
-30 -78 -59 -164 -28 -87 -52 -158 -53 -158 -1 0 -2 89 -3 198 -1 345 -50 529
-182 692 -168 207 -516 813 -626 1089 -48 121 -51 151 -76 761 -39 929 -74
1523 -104 1725 -10 69 -23 109 -56 175 -24 47 -56 119 -72 160 l-29 75 5 -150
c17 -488 27 -992 24 -1280 l-3 -330 -34 85 c-51 130 -87 284 -142 619 -134
822 -153 881 -599 1921 -246 575 -304 726 -336 878 -28 135 -70 228 -229 507
-336 589 -492 983 -571 1450 -24 137 -24 441 -1 541 49 213 135 342 277 414
152 76 370 71 535 -13 143 -72 290 -216 382 -373 46 -78 161 -335 172 -384 5
-25 42 -232 81 -460 114 -670 170 -936 233 -1095 l32 -80 6 65 c4 36 7 226 8
423 1 268 4 356 13 351 8 -5 9 24 5 117 -4 68 -11 309 -17 534 -5 226 -16 481
-25 567 -26 267 -35 506 -50 1343 -8 446 -20 859 -25 918 -10 106 -10 109 20
200 17 51 116 263 220 472 103 209 218 450 255 535 117 272 193 528 213 720
l8 75 88 -174 c48 -95 89 -171 92 -169 9 9 85 274 133 465 108 429 166 764
192 1103 13 169 7 462 -12 573 -6 38 -9 70 -6 73 2 2 21 -42 42 -98 59 -161
292 -749 403 -1013 428 -1027 866 -1904 1205 -2415 77 -116 219 -311 224 -307
1 2 -19 57 -46 123 -216 532 -404 1188 -496 1733 -48 282 -66 481 -72 767 -3
149 -2 301 1 338 l8 67 98 -198 c253 -511 568 -891 893 -1078 l48 -27 -20 48
c-10 27 -89 224 -175 438 -85 215 -155 391 -153 392 1 1 29 -18 62 -43 277
-209 688 -249 1133 -108 61 20 113 39 116 43 2 4 -93 49 -213 101 -119 52
-220 97 -224 101 -5 4 164 10 375 13 462 7 769 31 1128 87 566 90 1031 246
1318 442 23 16 42 25 42 21 0 -5 -45 -142 -99 -306 -55 -163 -97 -297 -95
-297 3 0 127 70 275 156 149 86 272 154 275 151 3 -3 -26 -216 -65 -473 -39
-257 -70 -468 -68 -470 1 -2 72 116 156 262 84 146 155 264 156 262 1 -2 -19
-111 -46 -243 -124 -614 -213 -1243 -249 -1755 -13 -189 -13 -614 1 -760 10
-120 33 -268 50 -334 l11 -39 292 584 c161 321 334 663 385 759 139 265 505
930 509 926 2 -2 -29 -183 -68 -401 -39 -219 -69 -399 -67 -401 2 -2 93 93
203 211 191 207 199 214 206 188 4 -16 19 -140 33 -278 96 -909 240 -1830 366
-2330 59 -237 157 -516 166 -475 1 8 30 161 64 340 177 948 383 1807 574 2386
74 226 185 508 195 497 11 -12 137 -367 219 -615 116 -352 218 -754 222 -871
1 -19 9 4 20 58 70 334 96 453 141 635 163 667 359 1196 547 1480 109 165 620
760 700 817 24 16 24 16 18 -8 -4 -13 -22 -94 -41 -179 -99 -440 -145 -861
-125 -1126 5 -70 13 -133 17 -140 5 -9 13 13 20 59 47 278 179 686 307 952
135 278 318 509 498 628 125 83 352 167 558 209 133 26 382 31 484 9 80 -17
208 -58 231 -75 22 -16 71 0 -443 -147 -353 -100 -362 -103 -330 -117 17 -7
142 -54 277 -103 459 -170 993 -341 1157 -371 35 -6 63 -14 63 -18 0 -3 -122
-51 -271 -105 l-271 -100 183 -6 c562 -20 1286 -30 1994 -28 870 3 912 1 1191
-56 121 -24 265 -66 294 -84 12 -9 12 -11 -3 -17 -10 -3 -91 -37 -180 -74
-161 -68 -161 -68 -180 -111 -88 -207 -133 -471 -116 -689 19 -251 86 -399
315 -705 434 -578 556 -784 605 -1020 23 -110 24 -188 4 -342 -33 -254 -62
-426 -284 -1678 -164 -931 -227 -1348 -236 -1579 l-5 -121 71 145 c265 540
563 1218 617 1405 12 41 32 180 48 332 l28 261 30 6 c17 3 69 1 116 -4 214
-25 292 -90 335 -284 23 -104 16 -388 -13 -551 -94 -517 -211 -844 -769 -2160
-472 -1111 -480 -1132 -543 -1411 -29 -125 -64 -277 -79 -340 -16 -63 -25
-114 -20 -114 15 0 80 85 104 136 14 29 43 110 66 180 84 261 219 598 577
1439 489 1151 622 1499 726 1907 72 278 97 443 103 658 4 159 2 199 -15 281
-47 225 -151 336 -359 383 -40 9 -107 16 -151 16 -43 0 -81 2 -84 5 -2 3 -1
33 3 67 91 718 130 1019 180 1398 196 1493 372 2753 453 3245 46 285 66 587
66 1035 0 879 -91 1617 -240 1948 -16 34 -27 62 -25 62 3 0 93 -40 201 -90
108 -49 201 -90 207 -90 6 0 7 53 3 153 -39 854 -326 1581 -833 2107 -129 135
-129 135 13 100 160 -38 320 -115 416 -199 l47 -42 -25 90 c-108 396 -428 913
-851 1376 -60 66 -189 198 -287 293 l-177 172 43 0 c66 0 272 -19 388 -36 205
-29 421 -90 555 -156 l60 -29 -70 71 c-107 110 -314 301 -479 443 -854 733
-1764 1298 -2638 1638 -76 29 -136 55 -133 57 4 4 547 -15 655 -23 80 -6 91
-15 -180 154 -885 553 -1882 1053 -2740 1374 -769 287 -1443 453 -2020 497
-216 16 -276 22 -265 26 31 10 444 45 647 55 224 10 503 3 628 -18 l35 -6 -25
28 c-40 43 -208 151 -311 199 -473 220 -1148 274 -1909 150 -235 -38 -592
-115 -785 -170 -18 -6 -18 -4 -5 9 8 8 100 75 205 148 l189 133 -44 20 c-158
68 -607 214 -885 287 -660 172 -1212 209 -1542 104 -40 -12 -73 -22 -73 -21 0
2 34 38 76 82 262 272 428 567 468 834 7 47 12 87 10 89 -2 2 -172 -83 -380
-188 -207 -106 -379 -189 -382 -187 -4 5 76 309 96 364 6 17 -6 14 -68 -20z
m-248 -1215 c-180 -274 -331 -504 -336 -511 -4 -7 23 7 61 31 218 141 493 223
903 269 147 16 700 16 875 0 245 -23 242 -19 49 -67 -309 -77 -545 -165 -814
-301 -366 -184 -692 -426 -925 -683 -123 -136 -130 -154 -29 -72 49 40 136
104 194 143 118 79 415 228 561 282 303 111 656 192 1009 231 195 21 541 37
640 29 l84 -7 -134 -27 c-802 -162 -1702 -604 -2615 -1284 -480 -358 -879
-703 -1344 -1161 -222 -220 -340 -342 -590 -615 l-32 -35 24 40 c19 32 224
352 672 1050 19 30 19 30 0 15 -11 -8 -260 -231 -555 -494 -294 -264 -543
-486 -554 -495 -10 -9 141 225 335 519 608 923 585 886 541 849 -22 -19 -265
-251 -541 -517 -275 -266 -501 -480 -501 -476 0 16 201 418 285 569 604 1095
1521 2123 2584 2899 143 105 458 316 472 316 4 0 -139 -224 -319 -497z m4343
-953 c994 -57 1899 -364 2755 -933 150 -100 197 -135 165 -122 -62 24 -382
134 -515 176 -285 91 -648 174 -840 193 -66 6 -64 6 135 -70 565 -214 1164
-557 1586 -909 105 -88 255 -225 245 -225 -3 0 -113 42 -244 94 -552 219 -933
341 -1157 370 -34 4 -38 3 -23 -8 10 -7 272 -165 582 -352 311 -186 564 -340
562 -341 -2 -2 -84 14 -182 36 -525 116 -1096 213 -1504 256 -297 31 -700 29
-733 -4 -8 -8 310 -132 803 -311 504 -184 938 -327 1208 -400 62 -16 94 -29
77 -29 -16 -1 -201 10 -410 24 -1766 116 -3616 293 -5055 485 -388 52 -934
131 -950 137 -20 8 142 40 605 117 775 130 1325 196 1788 214 l179 7 -797 150
-796 150 673 5 673 5 -495 168 c-272 92 -533 180 -580 196 l-85 28 45 6 c25 4
200 16 390 27 446 26 497 30 477 41 -39 22 -448 152 -592 187 -169 43 -439 92
-508 93 -89 1 -87 13 9 59 711 342 1680 527 2509 480z m-7167 -92 c-477 -385
-917 -807 -1012 -969 l-19 -33 29 21 c16 11 259 179 539 373 281 194 523 362
539 373 18 13 26 15 21 6 -5 -7 -187 -219 -403 -469 -217 -250 -402 -463 -411
-474 -20 -24 -35 -31 447 225 206 110 376 198 378 197 7 -8 -765 -984 -1159
-1466 -223 -273 -534 -642 -579 -687 -19 -19 -18 -17 2 25 23 46 299 565 373
699 22 41 36 72 31 68 -5 -3 -209 -253 -454 -556 -244 -302 -446 -549 -447
-547 -2 2 73 214 167 471 94 257 169 470 167 472 -2 2 -154 -134 -338 -303
-184 -169 -347 -318 -363 -333 l-28 -26 7 50 c37 261 222 742 411 1071 456
796 1142 1410 2044 1831 85 40 159 72 163 73 5 0 -42 -41 -105 -92z m4292
-2487 l75 -6 -190 -48 c-461 -118 -896 -266 -1132 -386 -139 -70 -139 -72 17
-66 311 13 753 26 756 22 2 -2 -283 -102 -634 -222 -350 -120 -655 -227 -677
-236 l-40 -18 55 0 c30 -1 296 -12 590 -26 294 -14 562 -25 595 -26 85 -1 65
-8 -270 -94 -1330 -345 -2503 -612 -2920 -664 -49 -7 -103 -14 -120 -16 -16
-2 260 142 615 320 355 178 639 324 632 324 -7 1 -346 -55 -754 -124 -407 -69
-745 -124 -751 -122 -12 4 151 155 274 253 812 648 1879 1050 3009 1133 133
10 760 11 870 2z m2237 -126 c1545 -281 2563 -480 2988 -582 133 -32 146 -37
115 -44 -19 -4 -241 -35 -492 -70 -252 -35 -456 -64 -454 -66 1 -2 290 -44
642 -93 351 -49 643 -91 649 -93 10 -4 -251 -46 -440 -72 -197 -26 -555 -64
-775 -82 -271 -21 -990 -25 -1180 -5 -268 27 -554 86 -679 139 l-44 19 514 42
c283 24 520 42 528 42 52 -1 -70 22 -663 124 -368 64 -670 117 -672 119 -2 1
169 27 379 57 210 29 392 56 405 59 17 5 -174 87 -705 305 -715 294 -765 315
-751 316 4 0 290 -52 635 -115z m-1270 -461 c199 -96 569 -424 937 -832 71
-78 131 -141 133 -138 7 6 -54 150 -111 263 -98 196 -256 439 -418 646 -38 49
-68 90 -66 92 2 2 55 -34 118 -81 588 -438 906 -910 986 -1464 22 -155 15
-419 -16 -575 -60 -306 -184 -609 -360 -878 -69 -107 -182 -261 -198 -271 -5
-3 7 39 25 92 147 418 279 988 308 1322 l5 65 -19 -63 c-73 -235 -187 -443
-372 -672 -88 -109 -295 -323 -388 -400 l-55 -45 68 90 c177 234 282 577 292
955 l4 165 -24 -85 c-80 -279 -280 -620 -580 -990 -140 -173 -424 -476 -398
-425 72 143 120 509 107 820 -11 262 -54 638 -98 849 l-12 59 -13 -129 c-34
-359 -174 -764 -459 -1325 -125 -249 -157 -300 -119 -197 35 95 82 288 103
420 24 155 24 577 0 760 -68 505 -232 1050 -463 1536 -35 74 -58 130 -51 125
24 -19 672 -480 684 -487 7 -4 2 20 -11 56 -14 35 -85 222 -160 417 -75 195
-134 356 -132 358 2 2 246 -185 542 -415 297 -231 540 -418 541 -417 2 1 -87
163 -198 361 -110 197 -216 388 -236 423 l-35 63 33 -7 c19 -3 66 -22 106 -41z
m6886 0 c485 -192 1019 -519 1557 -955 366 -296 673 -587 1044 -988 23 -24 34
-40 26 -36 -13 8 -1086 683 -1150 724 -13 9 32 -40 100 -109 294 -294 646
-790 1040 -1465 122 -209 340 -602 340 -613 0 -3 -111 104 -247 239 -355 351
-978 931 -1718 1599 -340 307 -314 286 -276 224 81 -133 154 -325 190 -506 34
-163 44 -307 38 -517 -6 -200 -20 -315 -59 -501 l-23 -105 -7 115 c-21 314
-91 598 -218 880 -237 526 -704 1050 -1264 1419 -59 39 -100 71 -90 71 61 0
563 -128 896 -229 89 -28 164 -48 165 -47 2 2 -108 102 -244 222 -136 120
-261 231 -278 247 l-30 27 70 -25 c105 -39 703 -264 760 -287 l50 -19 -25 24
c-14 13 -178 154 -365 312 -357 302 -394 335 -382 335 4 0 49 -16 100 -36z
m-1998 -829 c746 -79 1588 -435 2003 -847 152 -151 228 -298 286 -558 52 -236
61 -336 61 -725 -1 -353 -6 -443 -42 -730 l-16 -130 -78 -125 c-253 -406 -535
-737 -788 -924 -105 -78 -296 -179 -361 -191 -29 -6 -19 3 57 51 284 181 493
449 638 818 78 200 152 503 170 701 l6 70 -35 -102 c-38 -109 -114 -268 -197
-409 -51 -87 -249 -385 -289 -434 l-20 -25 11 30 c187 506 258 861 231 1158
-31 339 -172 566 -427 692 -76 38 -215 82 -215 69 0 -2 17 -11 38 -19 157 -66
331 -238 332 -328 0 -22 9 -26 -117 46 -191 108 -396 186 -583 221 -107 21
-299 21 -398 0 -237 -48 -446 -197 -597 -424 -55 -82 -135 -234 -135 -256 0
-3 17 15 38 40 83 105 284 235 512 335 108 47 288 116 279 107 -2 -3 -38 -27
-79 -53 -274 -179 -558 -481 -802 -854 -238 -362 -410 -702 -765 -1504 -203
-458 -355 -779 -444 -937 -28 -51 -125 -203 -214 -338 -210 -318 -343 -528
-831 -1310 -222 -355 -426 -681 -454 -725 l-51 -80 5 100 c10 177 52 355 166
695 115 344 304 811 519 1280 40 85 68 150 63 145 -5 -6 -51 -66 -102 -135
-168 -225 -942 -1171 -1097 -1340 -7 -8 35 82 95 200 182 361 337 721 524
1220 120 320 391 1124 386 1146 -4 18 -135 -76 -315 -226 -161 -134 -505 -469
-708 -690 -363 -394 -718 -821 -1100 -1322 -82 -108 -151 -195 -153 -194 -7 8
76 304 138 486 152 453 406 1041 725 1681 70 140 120 247 112 239 -8 -8 -299
-395 -647 -860 -348 -465 -637 -849 -642 -855 -15 -15 -4 19 59 185 195 513
508 1139 866 1735 618 1029 1521 2239 2451 3285 41 47 71 86 67 88 -13 4 -220
-64 -329 -109 -119 -50 -364 -172 -452 -226 -97 -59 -117 -70 -104 -52 205
273 483 542 754 731 382 266 850 438 1320 487 142 14 522 12 675 -4z m-9661
-729 c-162 -575 -210 -1220 -113 -1540 23 -78 67 -181 74 -174 2 2 14 53 25
114 118 614 351 1120 640 1388 62 57 109 92 113 85 1 -2 19 -40 41 -84 182
-380 518 -707 927 -905 276 -133 560 -209 902 -241 186 -17 629 -6 822 20 83
11 157 20 165 20 25 0 -235 -128 -378 -185 -343 -138 -693 -220 -1041 -244
-484 -33 -967 81 -1350 319 -46 28 -87 48 -92 44 -14 -16 -79 -237 -99 -339
-134 -697 97 -1235 660 -1537 280 -150 670 -246 1125 -277 88 -6 282 -10 432
-8 150 2 269 0 265 -3 -10 -10 -156 -53 -297 -88 -550 -137 -1089 -163 -1547
-75 -131 25 -341 88 -437 130 -30 13 -57 22 -60 19 -8 -8 63 -146 122 -239
262 -409 709 -767 1243 -996 146 -62 408 -155 514 -180 l55 -14 -40 -7 c-57
-11 -327 7 -475 31 -501 82 -955 285 -1355 605 -132 105 -338 313 -448 450
-104 128 -260 359 -337 497 -30 53 -58 94 -62 92 -13 -9 -9 -191 8 -302 87
-587 518 -1216 1214 -1770 80 -63 150 -120 155 -125 6 -6 -39 16 -100 48 -513
272 -1030 672 -1398 1083 -554 619 -860 1255 -962 2002 -22 161 -31 545 -16
722 33 396 125 798 275 1201 59 158 143 351 131 302 -15 -62 -57 -335 -76
-490 -26 -223 -38 -718 -20 -901 19 -195 75 -482 99 -506 4 -4 13 59 20 140
24 299 72 617 138 904 112 494 271 841 470 1027 42 39 80 71 84 71 4 0 -3 -38
-16 -84z m-1565 -1147 c-15 -151 -15 -707 0 -889 62 -769 231 -1417 517 -1980
189 -373 378 -636 663 -921 223 -222 394 -357 645 -508 65 -39 114 -71 109
-71 -5 0 -115 53 -244 118 -511 256 -880 512 -1199 832 -217 217 -362 413
-462 628 -22 45 -40 82 -42 82 -5 0 14 -135 30 -215 106 -523 412 -1025 829
-1357 132 -106 129 -102 70 -93 -76 10 -271 78 -375 130 -558 280 -965 803
-1237 1589 l-34 101 5 -285 c11 -610 88 -1236 212 -1718 19 -74 34 -137 34
-141 -1 -11 -79 179 -129 314 -414 1113 -586 2307 -475 3295 28 257 96 608
152 795 l19 60 7 -215 c16 -502 61 -884 124 -1070 18 -52 19 -53 24 -25 3 17
43 297 89 623 53 374 86 585 91 570 4 -13 57 -288 118 -612 61 -324 112 -591
114 -593 2 -2 6 29 10 69 37 401 128 950 207 1246 40 153 123 372 135 359 2
-2 -1 -55 -7 -118z m-1613 -284 c111 -316 162 -685 171 -1230 11 -686 -55
-1414 -207 -2305 -58 -338 -170 -893 -182 -905 -2 -2 -59 309 -128 692 l-125
695 -6 -215 c-15 -477 -76 -1005 -209 -1792 -77 -458 -245 -1334 -249 -1303
-1 4 8 78 19 165 56 446 74 928 67 1738 -7 745 -32 1345 -87 2110 -11 149 -20
281 -20 294 0 95 -16 -73 -65 -674 -30 -380 -56 -701 -58 -715 -5 -48 -91 261
-136 490 -26 132 -56 337 -73 505 -17 171 -17 698 0 880 29 301 90 643 158
877 34 119 44 146 44 117 0 -122 62 -370 146 -581 58 -149 233 -512 242 -503
3 2 33 356 68 786 35 429 64 785 66 790 2 6 80 -341 173 -770 93 -429 173
-777 177 -773 14 14 56 220 72 352 34 268 66 814 66 1109 0 81 3 189 7 240 7
107 5 109 69 -74z m16540 -3247 c-19 -35 -120 -214 -225 -398 -104 -184 -188
-336 -186 -338 2 -2 181 146 397 330 216 184 399 337 406 342 17 10 -18 -76
-80 -197 -217 -422 -608 -792 -1078 -1019 -280 -135 -599 -228 -950 -278 -135
-19 -439 -45 -446 -38 -2 2 43 19 99 37 336 109 762 271 952 362 95 45 215
117 215 129 0 3 -46 2 -102 -2 -231 -16 -714 -28 -878 -23 -197 7 -437 29
-520 48 l-55 12 180 64 c1055 374 1992 787 2241 990 27 22 53 40 57 40 4 1 -8
-27 -27 -61z m-11650 -16433 c20 -148 40 -273 43 -277 3 -3 51 78 105 182 55
104 102 187 105 184 4 -3 24 -78 46 -166 l41 -161 39 54 c22 30 97 132 168
228 l129 174 38 -95 c48 -121 82 -181 194 -351 l91 -138 5 158 5 158 50 -78
c28 -42 74 -114 102 -160 52 -80 53 -81 53 -47 1 79 29 642 32 645 2 2 36 -56
77 -128 109 -198 312 -537 320 -537 4 0 31 78 60 173 29 94 56 175 60 180 4 4
45 -76 92 -178 46 -101 86 -185 89 -185 3 0 61 69 130 152 l125 153 28 -150
c16 -82 30 -152 33 -154 2 -2 38 24 79 59 42 34 78 61 80 59 2 -2 0 -50 -3
-107 -4 -56 -5 -101 -2 -100 129 66 205 97 339 143 90 30 166 54 168 52 2 -2
-33 -52 -78 -111 -44 -59 -78 -110 -75 -113 7 -7 76 18 378 139 135 54 249 98
251 98 3 0 -18 -55 -48 -122 l-52 -123 43 -3 c24 -2 52 2 63 8 51 27 222 171
527 444 l54 48 72 -55 c180 -137 403 -207 666 -207 l112 0 0 130 c0 72 3 130
7 130 3 0 96 -63 206 -140 110 -78 201 -139 203 -138 1 2 -15 64 -36 138 -21
74 -37 136 -35 138 2 3 275 -205 349 -267 16 -13 15 -8 -6 29 -90 159 -130
232 -126 235 2 2 133 -79 291 -180 158 -101 287 -182 287 -179 0 2 -30 63 -66
135 -36 72 -64 133 -62 134 2 2 60 -46 128 -106 69 -60 161 -134 206 -164 92
-62 265 -147 404 -198 170 -63 168 -65 48 64 -59 62 -106 115 -104 116 1 2
122 -35 269 -82 146 -47 268 -85 271 -85 2 0 -32 35 -77 78 -45 42 -83 80 -85
84 -10 21 201 -64 303 -123 204 -116 273 -228 367 -594 33 -128 98 -466 92
-476 -3 -5 -303 80 -372 106 -15 6 -20 14 75 -136 40 -64 73 -119 73 -121 0
-3 -77 8 -171 24 -95 16 -173 27 -176 25 -4 -5 77 -238 141 -405 20 -52 36
-98 36 -103 0 -4 -66 -10 -147 -11 l-146 -3 146 -170 c81 -93 147 -174 147
-178 0 -4 -17 -15 -37 -24 -50 -22 -302 -29 -472 -14 -122 12 -311 36 -360 47
-14 3 26 -37 103 -101 70 -59 126 -109 124 -111 -2 -2 -179 45 -394 105 -214
60 -390 108 -391 107 -1 -1 33 -98 77 -216 43 -118 77 -216 75 -218 -1 -2
-139 65 -305 148 -287 144 -301 150 -282 118 96 -158 140 -233 137 -236 -2 -2
-85 34 -184 81 -100 47 -181 84 -181 83 0 -2 45 -96 100 -209 55 -113 100
-208 100 -211 0 -14 -526 188 -587 225 -56 35 -120 116 -151 192 -45 107 -62
204 -69 380 -3 86 -8 157 -10 157 -2 0 -53 -25 -113 -55 -61 -30 -110 -52
-110 -48 1 5 52 80 114 168 63 88 113 161 112 162 -1 1 -91 -8 -200 -20 l-198
-21 -53 -61 c-65 -75 -123 -161 -165 -244 l-32 -65 -62 65 c-34 35 -96 101
-139 147 l-77 84 0 -66 c0 -36 -4 -66 -9 -66 -4 0 -98 31 -209 70 l-201 69 28
-63 c54 -119 61 -118 -112 -27 -85 44 -159 81 -164 81 -6 0 -18 -29 -28 -65
-9 -36 -21 -67 -25 -70 -4 -3 -57 63 -116 147 l-109 151 -3 -131 -3 -131 -42
28 c-57 38 -152 75 -299 115 -156 43 -368 89 -375 82 -3 -3 20 -41 51 -86 31
-44 54 -80 51 -80 -3 0 -106 45 -229 100 -122 55 -228 100 -233 100 -38 0 -13
-67 52 -140 54 -61 78 -112 108 -230 18 -71 21 -115 22 -265 0 -160 -3 -188
-23 -252 -16 -52 -33 -83 -59 -109 -71 -72 -293 -154 -548 -203 -60 -12 -120
-24 -132 -27 -13 -2 -23 0 -23 5 0 5 47 92 105 192 58 100 105 184 105 186 0
1 -123 4 -273 5 l-274 3 72 160 c40 88 71 161 70 163 -2 2 -82 -35 -179 -82
-153 -73 -176 -82 -170 -63 4 12 38 118 76 235 38 118 67 216 65 219 -3 2 -82
-39 -177 -92 -94 -53 -173 -95 -175 -93 -2 1 42 65 96 141 54 75 97 137 95
137 -2 0 -74 -40 -159 -90 -86 -49 -158 -90 -161 -90 -3 0 -7 54 -8 121 l-3
121 -367 -266 c-202 -146 -369 -266 -373 -266 -3 0 3 17 14 38 46 91 101 302
137 527 25 153 26 425 2 478 -9 20 -24 40 -33 43 -9 4 -80 -7 -158 -25 -78
-17 -214 -42 -302 -56 -88 -14 -173 -27 -189 -30 -35 -6 -35 -8 32 143 28 61
49 112 46 112 -2 0 -84 -40 -182 -88 -235 -118 -341 -166 -347 -160 -3 3 45
117 106 254 61 137 113 254 115 260 3 7 -32 13 -107 18 -62 4 -115 9 -118 11
-3 3 30 96 72 207 42 111 75 204 73 205 -2 2 -34 -19 -72 -47 -38 -27 -71 -50
-75 -50 -8 0 3 61 31 169 44 172 207 595 220 570 4 -8 15 -81 25 -164 10 -82
19 -152 21 -153 1 -2 86 51 189 118 102 67 188 121 189 119 2 -2 -27 -56 -65
-119 l-68 -115 28 -3 c76 -8 314 117 530 280 35 26 67 48 71 48 3 0 37 -65 74
-145 38 -80 72 -145 75 -145 3 0 57 129 120 287 94 235 116 283 122 263 4 -14
24 -146 45 -295z m-2046 -853 c0 -5 -11 -41 -24 -81 -15 -42 -20 -69 -13 -64
7 4 53 40 103 80 50 40 94 73 97 73 3 0 -3 -30 -13 -67 -60 -220 -78 -294 -67
-285 7 6 53 60 102 121 50 60 93 110 96 110 5 1 -24 -159 -47 -259 -4 -20 11
-9 71 50 46 44 75 67 72 55 -3 -11 -13 -58 -22 -105 -41 -203 -133 -451 -228
-612 -56 -94 -164 -234 -174 -224 -4 4 87 398 103 446 8 24 -5 7 -171 -228
-86 -123 -159 -222 -160 -220 -1 2 22 131 51 288 30 157 53 289 51 294 -2 5
-67 -100 -146 -233 -79 -133 -145 -240 -147 -239 -1 2 31 143 72 313 40 171
74 314 74 319 0 5 -41 -55 -90 -134 -146 -232 -270 -398 -369 -495 -59 -57
-59 -57 -36 82 66 409 331 771 716 977 87 47 99 52 99 38z m710 -869 c-29 -54
-61 -113 -72 -130 -11 -18 -17 -33 -14 -33 3 0 133 59 290 130 157 72 287 130
291 130 3 0 -43 -63 -102 -141 -174 -226 -181 -236 -155 -219 12 8 76 52 142
98 66 45 120 79 120 75 0 -5 -27 -80 -60 -167 -33 -88 -58 -162 -56 -164 12
-11 265 328 321 431 20 37 38 67 40 67 8 0 -57 -225 -101 -351 -132 -380 -309
-677 -503 -843 -30 -25 -58 -46 -63 -46 -4 0 -9 48 -10 108 l-3 107 -90 -132
c-49 -72 -91 -130 -93 -129 -1 2 27 85 63 186 35 101 63 185 62 186 -1 1 -78
-81 -172 -182 -93 -101 -171 -184 -173 -184 -5 0 14 30 165 268 67 105 119
192 117 192 -3 0 -69 -35 -147 -79 -191 -106 -211 -116 -201 -99 4 7 79 107
167 221 87 115 157 210 155 212 -2 2 -129 -43 -283 -100 l-280 -104 129 124
c128 122 129 124 85 111 -263 -80 -321 -97 -325 -93 -8 8 116 159 195 238 87
85 199 177 310 252 78 52 272 157 292 157 6 0 -13 -44 -41 -97z m3090 -1700
c0 -5 -13 -114 -29 -243 -16 -129 -28 -236 -27 -237 2 -2 50 108 108 244 l106
247 6 -115 c3 -63 11 -298 17 -524 6 -225 12 -411 13 -412 1 -2 90 159 196
357 107 197 196 358 197 356 2 -2 -19 -150 -47 -329 -27 -180 -50 -332 -49
-339 0 -7 13 19 28 57 89 225 224 431 431 656 88 96 225 220 176 159 -83 -104
-150 -200 -194 -278 -126 -223 -226 -521 -276 -822 -66 -394 -73 -914 -20
-1344 8 -65 12 -121 9 -124 -11 -12 -89 22 -162 70 -136 90 -416 384 -637 668
l-59 75 7 -50 c16 -112 105 -386 161 -494 8 -17 11 -31 6 -31 -24 0 -138 90
-214 170 -94 98 -189 234 -266 379 l-49 94 -8 -59 c-10 -74 -10 -329 -1 -409
l7 -60 -31 35 c-105 117 -225 360 -314 634 l-42 129 -11 -49 c-24 -109 -23
-259 3 -414 l6 -35 -20 36 c-59 106 -133 395 -168 654 -25 185 -25 744 0 965
21 183 38 302 43 297 3 -3 143 -815 145 -840 0 -7 11 19 25 57 38 111 99 228
183 353 76 114 231 307 239 299 3 -4 -60 -334 -74 -391 -3 -11 11 7 31 39 84
137 246 316 440 487 95 84 115 98 115 82z m1704 -10 c-2 -10 -13 -70 -24 -133
-12 -63 -24 -126 -27 -140 -3 -14 36 40 87 120 51 80 98 151 105 159 11 11 24
-34 76 -248 35 -143 64 -259 66 -257 2 1 12 90 24 197 11 106 22 195 24 197 1
2 56 -95 121 -215 135 -251 164 -302 164 -288 0 6 -31 147 -69 315 -37 168
-67 307 -65 309 2 2 440 -326 602 -452 15 -12 14 -10 -99 266 -42 103 -74 187
-71 187 3 0 112 -105 242 -232 129 -128 288 -285 354 -348 l119 -115 -122 238
c-67 132 -120 242 -116 245 13 13 222 -216 291 -318 173 -256 330 -566 494
-975 89 -222 175 -464 167 -471 -5 -5 -278 134 -467 239 l-54 30 29 -39 c16
-22 94 -122 172 -223 79 -101 142 -186 140 -188 -2 -1 -194 99 -428 223 -233
124 -437 233 -453 241 l-29 15 25 -43 c64 -111 250 -460 247 -464 -3 -2 -135
79 -294 180 -160 102 -293 185 -296 185 -3 0 29 -127 72 -282 43 -156 78 -286
76 -290 -1 -3 -64 52 -139 124 -120 113 -138 127 -138 105 0 -41 28 -380 45
-537 8 -79 13 -146 10 -149 -3 -3 -41 31 -83 75 -97 102 -177 230 -318 511
l-111 222 -12 -97 c-11 -93 -67 -361 -94 -449 l-13 -43 -12 117 c-21 199 -110
572 -238 998 -74 247 -236 749 -244 758 -4 5 -65 -82 -136 -192 -71 -110 -130
-198 -132 -197 -5 5 28 149 59 261 87 309 240 612 417 827 49 60 63 69 56 41z
m-3524 -389 c-50 -148 -89 -272 -88 -276 2 -3 62 61 133 143 171 197 170 197
146 128 -28 -80 -158 -440 -170 -472 -13 -34 -31 -45 193 115 99 71 181 126
183 124 3 -2 -5 -22 -16 -44 -91 -179 -213 -556 -257 -797 -20 -111 -30 -391
-16 -465 6 -30 9 -56 7 -58 -13 -13 -111 353 -123 461 l-8 62 -56 -220 -56
-220 -2 310 -1 310 -20 -40 c-11 -22 -57 -132 -103 -244 -46 -112 -86 -199
-89 -194 -15 24 -39 200 -44 323 -15 354 84 735 272 1045 47 77 197 286 202
281 2 -1 -38 -124 -87 -272z m5951 27 c372 -114 685 -257 877 -401 80 -59 153
-130 136 -130 -5 0 -84 32 -174 71 -184 79 -210 90 -210 86 0 -2 87 -84 194
-182 107 -99 193 -181 191 -183 -2 -2 -94 24 -205 58 -110 35 -203 61 -205 58
-2 -2 25 -109 60 -238 35 -129 63 -235 62 -237 -2 -1 -183 178 -402 399 -220
220 -391 397 -380 393 49 -17 203 -74 229 -84 23 -9 27 -9 19 1 -5 7 -83 104
-171 215 -89 111 -162 205 -162 208 0 9 11 6 141 -34z"/>
<path d="M11950 19160 c-184 -14 -378 -38 -525 -67 -71 -13 -131 -26 -132 -27
-2 -1 60 -31 137 -65 77 -35 138 -66 135 -70 -2 -4 -30 -13 -62 -20 -168 -38
-484 -150 -683 -243 -132 -62 -299 -163 -405 -246 -89 -68 -223 -201 -245
-241 -13 -25 -41 -25 260 -6 429 25 888 38 1190 32 300 -6 430 -16 555 -43
227 -49 510 -92 1040 -158 923 -116 2223 -248 2585 -263 169 -7 214 2 345 70
88 46 199 147 227 207 9 19 15 36 14 38 -2 1 -68 -4 -147 -12 -79 -8 -145 -13
-147 -11 -2 2 61 65 139 141 128 126 229 242 229 265 0 5 -82 10 -182 11
l-183 3 143 114 c79 62 142 115 140 116 -2 2 -443 29 -980 61 -538 32 -974 61
-970 65 4 3 107 26 230 50 132 26 215 46 204 50 -10 4 -139 28 -288 53 -521
88 -998 146 -1539 186 -188 15 -929 21 -1085 10z"/>
<path d="M25060 19063 c-136 -15 -824 -105 -1215 -159 -514 -71 -1515 -213
-1528 -217 -4 -1 50 -34 119 -72 102 -56 122 -71 101 -73 -14 -2 -361 13 -771
33 l-746 36 -227 -42 c-126 -23 -232 -45 -236 -49 -11 -10 90 -144 262 -348
192 -228 181 -212 134 -201 -21 4 -98 22 -172 39 -74 16 -136 29 -137 27 -2
-2 77 -68 176 -148 98 -79 179 -147 179 -150 1 -5 -69 10 -304 67 -16 4 -28 4
-25 1 21 -22 285 -203 329 -224 98 -48 67 -51 1066 72 1051 130 1571 189 1970
225 316 28 1004 59 1670 75 127 3 304 8 393 11 l164 6 -7 44 c-21 145 -143
395 -259 533 -20 24 -35 45 -34 47 2 2 48 -8 102 -22 54 -14 103 -23 110 -21
20 7 -169 182 -270 250 -174 116 -403 214 -586 251 -71 15 -173 18 -258 9z"/>
<path d="M13755 16644 c-16 -2 -73 -9 -125 -15 -589 -66 -1180 -334 -1695
-768 -111 -94 -337 -312 -330 -319 4 -5 1248 -122 1252 -119 1 1 -123 42 -275
90 -152 49 -283 90 -291 93 -26 9 220 238 415 386 314 239 695 412 1020 463
533 84 1616 -220 1961 -550 52 -50 73 -77 73 -95 0 -79 -116 -161 -333 -236
l-102 -35 80 5 c226 15 382 17 514 6 128 -11 145 -10 159 4 14 14 15 22 4 63
-46 176 -425 538 -755 722 -219 121 -571 233 -887 282 -104 16 -194 22 -395
24 -143 2 -273 1 -290 -1z"/>
<path d="M22460 16639 c-404 -31 -842 -158 -1208 -349 -200 -105 -352 -219
-525 -393 -175 -175 -225 -300 -140 -350 39 -22 273 -57 623 -91 140 -14 275
-28 300 -30 37 -4 28 1 -53 29 -125 43 -248 103 -310 150 -110 84 -135 167
-78 256 44 69 172 191 271 259 144 98 428 226 545 244 22 4 65 13 96 21 390
101 986 106 1299 9 47 -14 98 -28 113 -31 56 -11 344 -162 477 -251 74 -50
182 -129 240 -175 100 -80 272 -233 278 -247 1 -4 -80 -43 -180 -88 -101 -45
-177 -82 -170 -82 7 0 104 -7 215 -16 206 -17 647 -14 695 3 20 8 13 18 -86
125 -675 732 -1495 1076 -2402 1007z"/>
<path d="M13994 16266 c-22 -7 -60 -24 -83 -36 l-41 -24 34 -35 c67 -71 87
-147 61 -236 -19 -66 -80 -135 -139 -156 -20 -7 -36 -19 -36 -26 0 -25 100
-114 158 -141 48 -22 71 -27 142 -27 71 0 94 5 141 27 79 36 133 89 171 166
29 59 33 76 33 152 0 71 -4 94 -26 141 -58 124 -169 199 -302 205 -43 2 -89
-2 -113 -10z"/>
<path d="M22503 16266 c-42 -14 -113 -53 -113 -63 0 -3 11 -14 24 -24 60 -47
90 -162 66 -250 -14 -51 -81 -123 -135 -145 -25 -11 -45 -23 -45 -29 0 -5 29
-37 64 -71 55 -54 74 -66 136 -85 227 -69 450 95 450 331 0 93 -28 165 -91
235 -67 73 -138 106 -238 111 -48 3 -92 -1 -118 -10z"/>
<path d="M26591 12614 c0 -11 3 -14 6 -6 3 7 2 16 -1 19 -3 4 -6 -2 -5 -13z"/>
</g>
</svg>
