<?xml version="1.0" standalone="no"?>
<!DOCTYPE svg PUBLIC "-//W3C//DTD SVG 20010904//EN"
 "http://www.w3.org/TR/2001/REC-SVG-20010904/DTD/svg10.dtd">
<svg version="1.0" xmlns="http://www.w3.org/2000/svg"
 width="3600.000000pt" height="3600.000000pt" viewBox="0 0 3600.000000 3600.000000"
 preserveAspectRatio="xMidYMid meet">
<metadata>
Created by potrace 1.11, written by Peter Selinger 2001-2013
</metadata>
<g transform="translate(0.000000,3600.000000) scale(0.100000,-0.100000)"
fill="#000000" stroke="none">
<path d="M16095 35109 c306 -82 731 -205 845 -244 257 -88 498 -205 593 -287
l42 -36 -315 79 c-571 143 -711 162 -1190 163 -173 1 -373 -3 -445 -9 -126
-10 -121 -10 210 -16 369 -6 402 -10 663 -75 189 -46 423 -128 620 -215 l54
-24 -749 -2 c-740 -1 -932 -8 -1171 -39 -528 -69 -1118 -246 -1667 -501 -171
-79 -271 -133 -248 -133 12 0 120 22 750 154 490 103 791 147 998 145 l100 -1
-75 -14 c-397 -74 -674 -160 -930 -290 -102 -51 -234 -132 -196 -120 150 48
468 136 492 136 4 0 -57 -33 -137 -72 -235 -118 -460 -281 -581 -420 -29 -33
-65 -66 -80 -74 -15 -8 -133 -55 -260 -105 -352 -137 -567 -255 -1012 -556
-178 -120 -407 -283 -461 -328 -19 -16 -19 -16 5 -4 14 7 81 44 150 82 255
142 432 222 783 351 257 94 558 197 567 194 4 -2 -130 -84 -298 -183 -168 -99
-371 -223 -451 -276 -317 -207 -686 -508 -996 -812 l-130 -127 300 226 c165
124 336 249 380 278 284 185 642 347 1095 494 188 61 307 94 294 83 -5 -5 -92
-66 -194 -137 -754 -522 -1553 -1146 -1865 -1459 -354 -353 -573 -730 -633
-1090 l-18 -108 -75 -27 c-144 -53 -259 -120 -708 -412 -324 -211 -361 -239
-466 -349 -160 -167 -290 -357 -525 -769 -158 -276 -181 -341 -194 -547 l-7
-101 32 -37 c18 -20 50 -45 71 -56 43 -22 43 -18 7 -119 -11 -30 -34 -79 -50
-108 -23 -41 -27 -57 -19 -67 16 -19 63 -33 143 -41 66 -6 68 -7 50 -24 -10
-10 -193 -149 -408 -311 -295 -222 -415 -319 -495 -399 -119 -119 -212 -248
-275 -383 -43 -91 -79 -197 -68 -197 3 0 46 37 95 81 111 102 200 161 301 199
74 29 245 75 252 68 2 -2 -41 -73 -95 -159 -93 -149 -102 -168 -183 -395 -47
-132 -120 -331 -162 -444 -97 -261 -332 -962 -383 -1145 -98 -349 -174 -783
-171 -985 1 -52 3 -46 39 90 41 159 87 273 192 483 74 150 232 440 255 472 14
19 15 18 9 -15 -3 -19 -20 -161 -38 -315 -27 -229 -32 -315 -32 -475 2 -330
39 -795 90 -1115 30 -190 41 -383 25 -440 -10 -38 -6 -35 113 84 101 101 125
120 129 105 26 -89 52 -394 51 -604 0 -129 -2 -140 -37 -243 -20 -59 -37 -121
-37 -138 0 -17 9 -92 21 -167 23 -150 22 -195 -6 -322 -11 -49 -16 -97 -12
-112 l7 -27 94 6 c89 6 94 5 100 -15 4 -11 0 -37 -9 -58 -18 -44 -95 -153
-149 -212 -21 -23 -36 -45 -33 -49 5 -4 236 -52 304 -63 2 0 -49 -48 -112
-106 -64 -59 -114 -108 -112 -110 1 -2 61 -8 132 -14 70 -5 130 -12 132 -13 2
-2 -10 -69 -27 -148 l-29 -144 27 -23 c109 -94 177 -160 193 -186 24 -39 24
-77 -1 -196 -37 -178 -27 -229 56 -279 72 -43 155 -129 193 -201 35 -66 37
-72 16 -64 -23 9 -114 -47 -146 -90 -71 -97 -99 -252 -81 -453 15 -167 43
-330 92 -529 92 -373 177 -551 405 -849 218 -284 312 -459 537 -999 110 -265
138 -325 175 -374 18 -24 33 -73 57 -190 44 -205 113 -567 176 -922 69 -382
119 -637 195 -990 230 -1062 527 -2158 1027 -3795 161 -529 237 -759 347
-1054 348 -932 820 -1832 1343 -2565 132 -184 167 -229 588 -756 361 -452 452
-567 1055 -1336 320 -407 345 -443 424 -591 99 -186 159 -284 254 -413 358
-487 822 -887 1229 -1059 391 -166 915 -183 1379 -44 143 42 159 43 254 14
202 -62 474 -92 840 -94 190 0 276 4 360 17 529 82 1073 332 1555 715 163 130
342 317 495 521 337 448 680 871 1559 1925 530 635 515 616 666 820 793 1065
1428 2432 1819 3915 209 792 526 2793 702 4435 l23 210 72 68 c163 152 318
405 511 835 78 175 212 514 277 702 67 191 95 251 311 650 217 401 278 521
393 770 207 450 336 825 382 1105 24 143 26 349 6 447 -37 172 -143 315 -288
388 -269 134 -619 73 -1038 -183 -41 -25 -76 -44 -78 -42 -2 1 15 43 37 93 25
54 41 105 41 128 1 61 45 171 94 235 85 109 89 124 116 434 46 526 60 631 101
794 56 219 133 492 184 651 66 204 78 250 155 578 98 422 103 454 83 528 -30
113 -8 359 47 536 39 126 92 373 93 433 3 127 -22 339 -52 445 -60 216 -87
379 -116 700 -42 475 -67 616 -162 925 -102 333 -191 574 -278 750 -45 94 -89
188 -95 210 -7 22 -55 137 -108 255 -52 118 -119 278 -149 355 -122 312 -340
690 -694 1201 l-98 142 -51 313 c-60 366 -61 374 -96 470 -67 186 -171 362
-559 939 -305 453 -421 636 -545 855 -163 289 -258 447 -353 590 -424 635
-961 1174 -1592 1598 -212 143 -443 275 -730 417 -488 241 -1654 795 -1660
788 -2 -2 110 -133 247 -293 137 -159 268 -312 291 -340 l42 -50 -35 21 c-19
12 -201 127 -403 257 -202 131 -370 237 -373 237 -2 0 212 -225 478 -500 420
-435 534 -560 515 -560 -2 0 -150 88 -328 196 -1446 876 -2757 1653 -2965
1757 -538 270 -1344 450 -1999 446 l-120 0 110 -30z m8445 -11359 c21 -25 58
-69 82 -99 32 -41 73 -73 162 -127 141 -87 128 -75 325 -289 251 -271 271
-300 302 -419 10 -37 33 -94 52 -125 53 -87 59 -101 78 -179 21 -93 46 -128
138 -193 41 -30 95 -73 119 -96 37 -36 42 -45 33 -62 -6 -11 -29 -26 -51 -32
l-40 -12 0 -216 c0 -127 -7 -272 -15 -351 -32 -277 -32 -257 4 -277 30 -17 32
-21 27 -63 -3 -25 -8 -75 -11 -111 -6 -61 -12 -76 -97 -210 -129 -205 -122
-191 -114 -224 7 -28 45 -71 98 -110 l27 -20 -70 -97 -70 -98 47 -82 c26 -46
48 -86 50 -90 3 -4 -41 -43 -96 -88 l-100 -81 47 -87 c73 -135 103 -183 179
-294 39 -57 111 -170 159 -253 109 -185 132 -210 202 -218 92 -11 211 -85 317
-197 112 -119 160 -246 135 -355 -6 -30 -14 -217 -19 -460 -7 -386 -10 -423
-40 -640 -32 -220 -33 -246 -37 -615 -3 -239 -1 -422 6 -480 6 -52 15 -219 21
-370 13 -339 24 -464 53 -577 17 -68 20 -101 15 -143 -4 -30 -33 -327 -63
-660 -82 -902 -129 -1321 -235 -2135 -232 -1772 -437 -2880 -689 -3720 -341
-1136 -856 -2233 -1470 -3130 -166 -243 -349 -479 -667 -859 -992 -1186 -1376
-1658 -1734 -2131 -167 -222 -216 -277 -353 -403 -454 -415 -1091 -727 -1631
-798 -98 -13 -175 -15 -401 -10 -375 7 -577 33 -761 97 -46 16 -91 29 -100 29
-8 0 -61 -15 -117 -34 -249 -83 -452 -111 -747 -103 -286 8 -464 48 -685 153
-345 164 -751 525 -1072 952 -111 148 -156 221 -269 434 -53 101 -107 184
-174 270 -722 922 -951 1212 -1380 1748 -321 401 -401 505 -532 690 -497 702
-928 1521 -1281 2435 -109 281 -238 675 -432 1315 -25 85 -57 189 -70 230
-137 434 -453 1550 -588 2075 -233 902 -353 1453 -526 2410 -123 678 -258
1315 -274 1292 -5 -7 -6 4 -2 26 4 28 3 37 -5 32 -8 -5 -11 1 -9 16 1 13 -1
31 -4 39 -3 8 -21 105 -42 215 -20 110 -88 448 -151 750 -156 744 -179 862
-205 1060 -37 276 -30 690 12 741 5 7 109 76 229 154 121 79 220 146 220 151
0 4 -32 31 -71 59 -38 29 -67 56 -62 60 4 5 74 29 155 54 l147 47 -68 107
c-38 59 -68 108 -67 109 2 2 49 8 107 14 57 5 105 12 106 13 2 2 -1 78 -7 171
-6 92 -9 169 -6 172 2 2 133 -144 290 -326 158 -181 316 -356 352 -388 256
-226 581 -388 999 -498 113 -30 356 -78 362 -72 1 2 -127 74 -285 161 -158 88
-343 196 -412 241 -215 142 -419 332 -531 497 l-39 57 62 -28 c35 -16 106 -49
158 -73 361 -171 742 -348 747 -348 3 0 -115 124 -262 275 -147 151 -264 275
-260 275 16 0 635 -50 683 -56 44 -5 54 -10 66 -32 24 -46 140 -395 277 -829
177 -563 250 -760 393 -1058 81 -169 171 -329 256 -455 70 -104 140 -193 147
-187 2 3 -20 90 -51 193 -66 229 -90 341 -116 544 -21 166 -44 459 -37 466 2
2 111 -155 243 -350 131 -194 240 -353 242 -351 1 1 -92 296 -208 655 -117
358 -210 653 -208 655 2 2 89 -130 193 -293 321 -499 412 -617 735 -946 196
-199 385 -376 580 -541 150 -127 151 -128 79 -45 -271 310 -425 549 -537 838
-67 171 -69 176 -45 164 10 -5 119 -62 241 -127 123 -64 225 -115 227 -113 2
2 -59 100 -135 218 -77 118 -138 216 -136 218 3 2 71 -21 153 -51 578 -215
1392 -455 2068 -611 785 -181 1470 -239 1935 -165 103 17 77 23 -230 49 -140
12 -263 25 -273 28 -10 4 86 24 225 45 312 49 550 96 763 151 192 49 427 117
422 122 -1 2 -99 -1 -217 -6 -440 -19 -563 -12 -728 44 -67 23 -169 69 -184
84 -4 4 10 84 32 177 97 429 103 465 97 635 -4 98 -13 188 -26 245 -24 111
-83 294 -122 381 l-29 65 43 -6 c197 -27 1118 -44 1387 -26 231 16 395 39 543
76 34 9 71 18 82 21 11 2 -1 -7 -26 -20 -105 -56 -420 -151 -799 -241 -124
-30 -216 -54 -205 -54 27 -1 317 34 495 59 559 80 859 155 1175 295 130 58
327 161 419 220 30 19 58 35 63 35 4 0 -103 -108 -237 -241 -248 -244 -416
-396 -492 -446 l-42 -28 212 -5 213 -5 -214 -97 c-118 -54 -219 -98 -226 -98
-6 0 -24 8 -38 18 -19 12 -47 17 -93 17 -57 0 -73 -4 -108 -29 -161 -111 -67
-362 129 -344 56 6 87 25 133 82 28 34 31 45 31 104 0 53 -5 73 -22 98 l-22
31 94 12 c80 10 218 39 275 56 12 4 19 -7 27 -38 27 -100 151 -164 250 -126
38 14 92 67 109 106 18 42 18 105 -1 150 -8 19 -15 37 -15 39 0 2 28 18 63 35
234 118 588 405 1021 829 l199 195 -148 -185 c-276 -343 -406 -495 -438 -513
-52 -28 -87 -67 -111 -122 -19 -42 -90 -119 -377 -410 l-354 -358 85 53 c167
104 352 236 563 403 l139 110 42 -22 c79 -39 165 -23 224 40 50 53 66 136 38
203 l-14 33 190 189 c265 263 459 479 678 754 463 582 726 1400 827 2570 13
157 17 313 18 672 0 257 3 461 6 455 13 -23 38 -154 55 -277 22 -168 30 -678
15 -949 -36 -641 -105 -1065 -252 -1542 -123 -402 -334 -878 -539 -1215 -38
-63 -67 -114 -65 -114 8 0 139 186 208 296 193 310 352 640 501 1046 185 502
260 832 318 1398 18 172 18 1014 0 1210 -15 166 -39 379 -48 429 l-7 33 43
-23 c23 -13 59 -44 80 -69z m-3870 -4640 c-19 -11 -39 -19 -45 -19 -5 0 6 8
25 19 19 11 40 19 45 19 6 0 -6 -8 -25 -19z m7295 -374 c119 -31 210 -95 261
-181 64 -111 82 -328 44 -547 -71 -416 -352 -1086 -771 -1843 -167 -301 -237
-449 -312 -660 -223 -622 -444 -1091 -630 -1338 -38 -50 -53 -64 -55 -50 -1
10 24 311 58 669 33 357 60 658 60 668 0 9 -4 14 -10 11 -6 -3 -7 1 -4 9 3 9
11 16 17 16 6 0 8 3 5 6 -4 3 2 36 13 72 14 50 19 99 19 191 0 120 1 127 45
259 25 75 48 155 51 177 3 22 15 73 26 114 11 42 17 82 13 95 -4 11 -10 103
-14 203 l-6 181 -27 22 c-24 19 -28 29 -28 75 0 29 -7 89 -15 132 -37 189 -37
200 -4 272 17 36 37 77 45 91 9 14 30 57 49 95 18 39 52 97 74 130 26 38 43
75 47 105 3 25 15 80 26 122 19 69 20 86 10 145 -10 58 -8 98 10 263 12 107
24 187 26 177 4 -22 -5 -26 117 54 195 128 414 230 568 263 81 18 229 19 292
2z m-958 -208 c-3 -8 -6 -5 -6 6 -1 11 2 17 5 13 3 -3 4 -12 1 -19z m-10 -60
c-3 -8 -6 -5 -6 6 -1 11 2 17 5 13 3 -3 4 -12 1 -19z m-17820 -140 c-3 -8 -6
-5 -6 6 -1 11 2 17 5 13 3 -3 4 -12 1 -19z m10 -40 c-3 -8 -6 -5 -6 6 -1 11 2
17 5 13 3 -3 4 -12 1 -19z m22 -105 c19 -114 57 -222 172 -478 160 -360 268
-625 262 -643 -4 -9 -2 -13 4 -9 11 7 28 -22 18 -31 -3 -3 -5 1 -5 8 0 7 -2
11 -5 8 -3 -3 4 -34 14 -69 55 -180 210 -758 307 -1144 3 -11 -42 75 -100 190
-113 228 -195 360 -340 549 -124 163 -165 225 -218 331 -96 190 -169 441 -224
762 -30 179 -37 394 -15 473 19 68 68 124 112 129 3 1 11 -34 18 -76z m521
-1308 c0 -5 -5 -3 -10 5 -5 8 -10 20 -10 25 0 6 5 3 10 -5 5 -8 10 -19 10 -25z
m30 -80 c0 -5 -5 -3 -10 5 -5 8 -10 20 -10 25 0 6 5 3 10 -5 5 -8 10 -19 10
-25z m137 -417 c-3 -8 -6 -5 -6 6 -1 11 2 17 5 13 3 -3 4 -12 1 -19z m40 -130
c-3 -8 -6 -5 -6 6 -1 11 2 17 5 13 3 -3 4 -12 1 -19z m30 -100 c-3 -8 -6 -5
-6 6 -1 11 2 17 5 13 3 -3 4 -12 1 -19z m20 -70 c-3 -8 -6 -5 -6 6 -1 11 2 17
5 13 3 -3 4 -12 1 -19z m20 -70 c-3 -8 -6 -5 -6 6 -1 11 2 17 5 13 3 -3 4 -12
1 -19z m20 -70 c-3 -8 -6 -5 -6 6 -1 11 2 17 5 13 3 -3 4 -12 1 -19z m30 -110
c-3 -8 -6 -5 -6 6 -1 11 2 17 5 13 3 -3 4 -12 1 -19z m40 -150 c-3 -8 -6 -5
-6 6 -1 11 2 17 5 13 3 -3 4 -12 1 -19z m10 -40 c-3 -8 -6 -5 -6 6 -1 11 2 17
5 13 3 -3 4 -12 1 -19z m10 -40 c-3 -8 -6 -5 -6 6 -1 11 2 17 5 13 3 -3 4 -12
1 -19z m10 -40 c-3 -8 -6 -5 -6 6 -1 11 2 17 5 13 3 -3 4 -12 1 -19z m10 -40
c-3 -8 -6 -5 -6 6 -1 11 2 17 5 13 3 -3 4 -12 1 -19z m10 -40 c-3 -8 -6 -5 -6
6 -1 11 2 17 5 13 3 -3 4 -12 1 -19z m10 -40 c-3 -8 -6 -5 -6 6 -1 11 2 17 5
13 3 -3 4 -12 1 -19z m10 -40 c-3 -8 -6 -5 -6 6 -1 11 2 17 5 13 3 -3 4 -12 1
-19z m50 -10 c-3 -7 -5 -2 -5 12 0 14 2 19 5 13 2 -7 2 -19 0 -25z m16267 -54
c3 -8 2 -12 -4 -9 -6 3 -10 10 -10 16 0 14 7 11 14 -7z m-16257 -31 c-3 -10
-5 -4 -5 12 0 17 2 24 5 18 2 -7 2 -21 0 -30z m16296 0 c-7 -2 -19 -2 -25 0
-7 3 -2 5 12 5 14 0 19 -2 13 -5z m-16326 -35 c-3 -8 -6 -5 -6 6 -1 11 2 17 5
13 3 -3 4 -12 1 -19z m40 -45 c-3 -10 -5 -4 -5 12 0 17 2 24 5 18 2 -7 2 -21
0 -30z m-30 5 c-3 -8 -6 -5 -6 6 -1 11 2 17 5 13 3 -3 4 -12 1 -19z m10 -40
c-3 -8 -6 -5 -6 6 -1 11 2 17 5 13 3 -3 4 -12 1 -19z m23 -78 l-11 -25 6 25
c2 14 5 34 6 45 2 19 2 19 6 0 2 -12 -1 -32 -7 -45z m-13 28 c-3 -8 -6 -5 -6
6 -1 11 2 17 5 13 3 -3 4 -12 1 -19z m32 -95 c-1 -45 -1 -46 -10 -18 -8 27 -4
65 7 65 2 0 4 -21 3 -47z"/>
<path d="M24135 19137 c-139 -64 -154 -251 -27 -338 29 -19 48 -24 102 -24 54
0 73 5 102 24 61 42 83 85 83 161 0 76 -22 119 -83 160 -41 29 -132 37 -177
17z"/>
<path d="M24912 19073 c-78 -38 -118 -109 -110 -195 6 -55 25 -86 82 -132 34
-28 45 -31 104 -31 55 1 74 5 108 27 119 76 107 263 -20 326 -51 26 -118 28
-164 5z"/>
<path d="M23235 19046 c-38 -17 -90 -72 -104 -109 -27 -70 -7 -150 50 -204 61
-58 143 -70 214 -32 69 37 105 95 105 167 0 135 -144 232 -265 178z"/>
<path d="M25535 18739 c-22 -12 -50 -33 -63 -48 -70 -82 -48 -217 47 -282 50
-35 152 -34 204 1 99 67 115 199 35 286 -61 66 -148 83 -223 43z"/>
<path d="M19875 18177 c-139 -64 -154 -251 -27 -338 29 -19 48 -24 102 -24 54
0 73 5 102 24 61 42 83 85 83 161 0 76 -22 119 -83 160 -41 29 -132 37 -177
17z"/>
<path d="M18945 18026 c-137 -62 -154 -248 -32 -333 34 -24 50 -28 106 -28 79
0 119 20 158 80 30 46 41 116 24 166 -33 100 -161 158 -256 115z"/>
<path d="M24134 17623 c-12 -2 -39 -19 -61 -38 -47 -40 -68 -97 -58 -157 10
-56 77 -123 133 -133 122 -20 228 97 192 212 -28 88 -111 135 -206 116z"/>
<path d="M23165 17558 c-46 -16 -92 -65 -105 -114 -47 -168 166 -285 283 -155
61 68 59 166 -6 229 -49 48 -109 62 -172 40z"/>
<path d="M24684 17491 c-144 -65 -128 -266 24 -312 115 -34 237 87 203 201
-16 55 -62 104 -109 118 -53 16 -70 15 -118 -7z"/>
<path d="M22476 17350 c-42 -13 -95 -68 -107 -113 -16 -58 -2 -113 38 -158 64
-71 163 -76 234 -12 71 64 76 163 12 234 -47 52 -108 69 -177 49z"/>
<path d="M25214 17281 c-114 -69 -63 -261 69 -261 116 0 182 108 129 210 -34
65 -133 90 -198 51z"/>
<path d="M21665 17228 c-75 -26 -123 -111 -110 -192 10 -58 77 -122 137 -131
86 -13 179 51 193 133 13 81 -36 165 -114 191 -40 13 -66 13 -106 -1z"/>
<path d="M21035 16929 c-44 -12 -92 -67 -106 -119 -16 -64 0 -118 50 -163 155
-140 374 79 234 234 -48 53 -108 69 -178 48z"/>
<path d="M23940 16867 c0 -3 23 -19 51 -35 l51 -29 -84 -7 c-266 -21 -855
-185 -1525 -424 l-143 -51 42 76 c34 62 38 74 22 70 -416 -126 -548 -176 -758
-288 -100 -53 -182 -96 -183 -95 -1 1 7 32 18 70 10 38 18 71 16 72 -1 1 -33
-16 -72 -38 -150 -86 -295 -138 -386 -138 -53 0 -74 17 -67 54 4 22 -4 17 -69
-36 -125 -101 -291 -207 -433 -274 -256 -121 -265 -128 -400 -266 l-123 -128
54 -1 54 0 -90 -33 c-49 -18 -88 -37 -86 -42 2 -5 29 -28 59 -52 62 -48 173
-104 242 -122 61 -16 314 -59 319 -54 2 2 -19 27 -47 56 -28 29 -50 53 -49 54
1 1 65 -8 142 -21 77 -12 159 -25 182 -29 l43 -6 -24 62 -23 63 146 1 c130 1
155 4 226 28 44 15 298 81 565 147 1257 311 1499 372 1687 424 251 68 498 143
641 193 l110 39 -49 -105 c-27 -57 -49 -106 -49 -108 0 -2 35 22 78 53 91 66
206 125 287 148 68 20 119 18 365 -15 234 -32 372 -31 535 3 72 16 138 30 148
33 14 4 3 22 -58 94 l-76 89 68 3 68 3 -79 49 c-88 55 -88 58 19 70 105 12
104 15 -22 66 -65 26 -213 90 -329 142 -255 116 -373 161 -524 201 -102 26
-136 30 -302 34 -104 3 -188 3 -188 0z"/>
<path d="M11269 16687 l34 -36 -44 -11 c-174 -45 -479 -151 -479 -167 0 -3 33
-2 73 1 l72 7 -40 -32 c-68 -55 -150 -146 -177 -196 -15 -27 -44 -120 -66
-208 -22 -88 -44 -168 -47 -177 -9 -22 -8 -22 45 -3 23 8 44 15 46 15 3 0 -9
-27 -26 -60 -27 -53 -28 -60 -13 -60 10 0 94 5 187 10 93 6 170 9 173 7 2 -3
-28 -24 -67 -47 -39 -23 -69 -44 -68 -45 3 -2 279 33 391 50 l38 5 -31 -45
c-17 -25 -30 -45 -28 -45 2 0 52 13 112 30 118 32 118 32 49 -36 -13 -12 -23
-26 -23 -32 0 -18 164 -25 400 -18 776 22 838 21 1117 -29 76 -14 323 -50 548
-80 728 -99 914 -134 1360 -260 88 -25 239 -61 335 -81 143 -30 187 -35 243
-30 l68 6 79 -60 80 -61 0 41 0 40 75 -55 c41 -31 75 -54 75 -53 0 2 -13 51
-29 111 -16 59 -28 107 -26 107 2 0 27 -29 55 -65 29 -36 54 -64 56 -62 2 2
-14 48 -36 102 -22 54 -40 103 -40 109 0 16 105 -91 156 -157 24 -33 44 -56
44 -52 0 14 -91 200 -123 250 -58 92 -100 136 -216 225 -64 49 -117 87 -119
86 -2 -2 22 -44 52 -94 99 -163 99 -162 -3 -85 -131 100 -237 160 -363 208
-62 24 -125 48 -140 54 l-27 10 25 -57 c29 -63 44 -101 44 -107 0 -3 -30 15
-67 40 -88 59 -221 127 -329 169 -86 32 -369 117 -504 151 -36 9 -73 18 -83
21 -16 5 -15 -1 8 -46 15 -29 24 -54 22 -56 -2 -2 -24 7 -49 21 -119 66 -234
103 -427 135 -68 12 -139 27 -159 35 -20 8 -122 37 -227 65 -346 94 -669 209
-1233 440 -150 61 -305 119 -345 129 -62 16 -160 30 -392 57 l-50 6 34 -35z"/>
<path d="M20335 16621 c-146 -66 -131 -266 22 -312 121 -35 238 83 204 208
-17 64 -97 123 -165 123 -12 0 -39 -9 -61 -19z"/>
<path d="M19764 16501 c-113 -51 -135 -192 -44 -275 127 -115 331 23 265 180
-22 53 -61 92 -104 104 -50 14 -70 12 -117 -9z"/>
<path d="M19180 16273 c-21 -11 -42 -33 -54 -57 -17 -36 -18 -43 -5 -80 38
-110 179 -110 218 0 12 34 11 44 -2 76 -27 65 -96 92 -157 61z"/>
<path d="M21905 15178 c-185 -20 -394 -87 -596 -189 -217 -110 -392 -239 -699
-515 -91 -82 -203 -180 -248 -217 -106 -89 -115 -125 -44 -176 56 -40 108 -45
320 -31 108 7 205 15 215 19 13 5 -19 14 -88 25 -194 31 -305 73 -305 113 0
25 84 105 200 188 63 46 158 122 210 170 52 48 129 114 170 148 131 106 351
239 337 204 -56 -146 -72 -318 -42 -454 75 -342 375 -583 725 -583 120 0 215
22 325 75 157 76 264 183 340 340 60 124 79 217 72 358 -3 74 -12 134 -25 177
-12 35 -20 65 -19 66 1 1 160 -62 354 -139 l352 -140 -14 -33 c-7 -18 -47 -81
-89 -139 -42 -59 -76 -111 -76 -115 0 -4 49 10 110 31 231 81 335 99 645 108
l220 6 -88 53 c-182 108 -313 168 -667 304 -747 286 -1220 388 -1595 346z
m-58 -104 c-3 -3 -12 -4 -19 -1 -8 3 -5 6 6 6 11 1 17 -2 13 -5z m-54 -11 c-7
-2 -19 -2 -25 0 -7 3 -2 5 12 5 14 0 19 -2 13 -5z m23 -354 c45 -21 84 -81 84
-129 0 -49 -39 -108 -86 -131 -109 -52 -225 28 -212 146 7 54 32 89 83 115 51
25 78 25 131 -1z m194 -319 c26 -26 26 -81 0 -105 -26 -24 -76 -23 -100 1 -46
47 -15 124 50 124 17 0 39 -9 50 -20z"/>
<path d="M13960 15073 c-288 -28 -476 -65 -695 -137 -188 -62 -388 -150 -570
-248 -198 -106 -291 -172 -390 -272 -61 -62 -122 -111 -190 -153 -125 -78
-137 -86 -111 -78 64 19 319 57 421 62 117 5 123 5 235 -30 63 -20 133 -38
154 -42 l39 -6 -53 68 c-29 37 -71 84 -93 103 -23 19 -55 47 -72 63 l-30 27
40 36 c133 117 433 277 670 357 138 46 285 89 285 83 0 -2 -11 -28 -24 -57
-55 -126 -72 -310 -40 -452 21 -94 90 -237 151 -310 215 -257 579 -340 883
-201 94 44 198 122 261 199 64 77 133 219 154 318 23 103 16 274 -13 365 -11
34 -16 62 -12 62 36 0 367 -257 471 -367 63 -66 179 -220 196 -261 33 -78 6
-104 -173 -168 -51 -18 -125 -49 -163 -69 -73 -36 -100 -60 -59 -51 96 22 340
48 473 53 88 2 172 9 187 15 81 31 22 144 -191 362 -143 146 -313 290 -502
422 -303 213 -444 272 -731 303 -89 10 -423 13 -508 4z m116 -454 c31 -15 48
-32 63 -63 26 -53 26 -79 1 -130 -26 -52 -61 -77 -115 -84 -84 -9 -155 50
-162 137 -6 63 20 109 77 139 55 27 82 28 136 1z m167 -347 c24 -21 23 -84 -3
-107 -46 -41 -120 -9 -122 53 -2 69 71 101 125 54z"/>
<path d="M10856 13925 c-58 -54 -17 -155 64 -155 27 0 45 7 64 26 58 59 18
154 -64 154 -25 0 -45 -8 -64 -25z"/>
<path d="M11163 13361 c-90 -56 -74 -182 27 -212 53 -16 107 10 134 65 17 36
18 43 5 79 -26 74 -105 106 -166 68z"/>
<path d="M11474 12961 c-61 -37 -82 -134 -43 -198 73 -118 259 -63 259 77 0
109 -123 178 -216 121z"/>
<path d="M11934 12331 c-109 -50 -134 -183 -50 -267 67 -67 165 -67 232 0 83
83 58 218 -50 267 -23 10 -52 19 -66 19 -14 0 -43 -9 -66 -19z"/>
<path d="M12651 11760 c-142 -60 -165 -254 -40 -337 36 -24 53 -28 109 -28 56
0 73 4 109 28 107 71 107 243 1 313 -46 31 -135 42 -179 24z"/>
<path d="M15171 11665 c-24 -8 -61 -31 -83 -52 -154 -151 -11 -410 201 -363
75 16 142 83 161 159 26 110 -37 225 -143 256 -60 18 -78 18 -136 0z"/>
<path d="M14361 11425 c-24 -8 -61 -31 -83 -52 -153 -149 -11 -410 198 -364
119 27 190 140 164 260 -16 72 -82 142 -153 159 -56 15 -70 14 -126 -3z"/>
<path d="M13611 11400 c-142 -60 -165 -254 -40 -337 36 -24 53 -28 109 -28 56
0 73 4 109 28 107 71 107 243 1 313 -46 31 -135 42 -179 24z"/>
<path d="M11879 11131 c-20 -20 -29 -39 -29 -61 0 -22 9 -41 29 -61 20 -20 39
-29 61 -29 22 0 41 9 61 29 20 20 29 39 29 61 0 22 -9 41 -29 61 -20 20 -39
29 -61 29 -22 0 -41 -9 -61 -29z"/>
<path d="M12429 10669 c-81 -87 1 -220 116 -188 50 14 75 51 75 111 0 43 -4
54 -31 79 -26 24 -40 29 -81 29 -43 0 -54 -4 -79 -31z"/>
<path d="M12952 10410 c-64 -39 -89 -118 -58 -178 54 -104 186 -109 246 -10
72 118 -70 260 -188 188z"/>
<path d="M13403 10270 c-111 -25 -162 -155 -99 -250 32 -49 76 -72 136 -72 60
0 104 23 136 72 81 123 -29 282 -173 250z"/>
<path d="M21930 6249 c-336 -149 -574 -203 -1660 -380 -442 -72 -697 -116
-776 -134 -38 -9 -76 -16 -84 -17 -30 -1 -199 -41 -355 -85 -370 -103 -392
-107 -585 -107 -189 0 -240 9 -435 73 -49 16 -92 28 -96 25 -4 -2 -9 0 -11 6
-7 22 -251 45 -948 90 -463 30 -1180 91 -1360 116 -152 20 -320 56 -466 99
-64 19 -119 33 -121 31 -4 -4 531 -232 635 -271 113 -42 235 -73 370 -95 78
-13 140 -29 170 -44 47 -25 75 -29 372 -56 52 -5 127 -9 166 -10 44 0 108 -10
165 -25 556 -149 844 -211 1164 -250 79 -10 162 -29 245 -56 146 -47 409 -101
600 -124 74 -9 248 -18 387 -21 l251 -5 41 27 c23 14 41 31 41 35 0 5 5 9 11
9 17 0 69 47 61 55 -4 5 -2 5 5 1 7 -4 20 1 30 11 11 10 44 38 76 62 31 24 57
48 57 53 0 5 4 7 9 4 4 -3 19 6 31 19 13 14 27 25 31 25 12 0 89 53 89 62 0 4
6 7 13 6 6 -2 11 2 10 8 -1 8 6 10 19 6 16 -4 19 -2 13 8 -5 8 -4 11 2 7 14
-9 115 47 106 58 -5 4 -2 5 5 1 7 -4 20 -2 29 6 9 7 19 12 22 10 12 -6 100 41
94 51 -3 6 -1 7 5 3 7 -4 33 3 59 14 27 12 109 46 183 77 74 30 149 61 165 68
17 8 62 25 101 39 303 106 758 312 1042 472 222 125 226 133 22 43z"/>
</g>
</svg>
